# xmcd
#
# Track frame offsets:
#	150
#	15292
#	31908
#	53091
#	67914
#	87271
#	106458
#	123592
#	140382
#	158205
#	176639
#	189875
#	205059
#	220731
#	234607
#	248433
#	249389
#	250090
#	250754
#	251745
#	252555
#	253301
#	254038
#	254759
#
# Disc length: 3402 seconds
#
# Revision: 1
# Processed by: cddbd v1.5.2PL0 Copyright (c) Steve Scherf et al.
# Submitted via: audiograbber 1.83.01
#
DISCID=540d4818
DTITLE=Various Artist - CDX 631
DYEAR=2016
DGENRE=Country
TTITLE0=Jake Owen - American Country Love Song
TTITLE1=Blake Shelton - Came Here To Forget
TTITLE2=Luke Bryan - Huntin'  Fishin'  And Lovin' Everyday
TTITLE3=Kelsea Ballerini - Peter Pan
TTITLE4=Alan Jackson - The One You're Waiting On
TTITLE5=Aaron Watson - Bluebonnets
TTITLE6=John Anderson - Magic Mama
TTITLE7=Jason Pritchett ft. Billy Dean - Already A Dead Man
TTITLE8=Vince Hatfield - American Oil From American Soil
TTITLE9=Gina Miller - Angel From Montgomery
TTITLE10=Jessie G - Drop A Line
TTITLE11=Keith Walker - I've Got Friends With Boats
TTITLE12=Cassidy Huckabay - I Heard It Through the Grapevine
TTITLE13=Kylie Morgan - Mayers in the Mailbox
TTITLE14=Alexandra Demetree - You Still Think Im Beautiful
TTITLE15=Sierra Black - My New Single (Liner)
TTITLE16=Sierra Black - Today's Best Country (Liner)
TTITLE17=Sierra Black - Kickin' Country (Liner)
TTITLE18=Sierra Black - Hometown Country (Liner)
TTITLE19=Sierra Black - Super Country (Liner)
TTITLE20=Sierra Black - Today's Hot Country (Liner)
TTITLE21=Sierra Black - Best In Today's Country (Liner)
TTITLE22=Sierra Black - More Of the Country You Love (Liner)
TTITLE23=Sierra Black - Howlin' Country (Liner)
EXTD=
EXTT0=
EXTT1=
EXTT2=
EXTT3=
EXTT4=
EXTT5=
EXTT6=
EXTT7=
EXTT8=
EXTT9=
EXTT10=
EXTT11=
EXTT12=
EXTT13=
EXTT14=
EXTT15=
EXTT16=
EXTT17=
EXTT18=
EXTT19=
EXTT20=
EXTT21=
EXTT22=
EXTT23=
PLAYORDER=
